<svg xmlns="http://www.w3.org/2000/svg" fill-rule="evenodd" stroke-linejoin="round" stroke-miterlimit="2" clip-rule="evenodd" viewBox="0 0 32 32"><path d="M8.663,19.095l-6.785,6.784c-1.171,1.171 -1.171,3.072 0,4.243c1.171,1.171 3.072,1.171 4.243,-0l6.784,-6.785c1.788,1.057 3.871,1.663 6.095,1.663c6.623,0 12,-5.377 12,-12c0,-6.623 -5.377,-12 -12,-12c-6.623,0 -12,5.377 -12,12c0,2.224 0.606,4.307 1.663,6.095Zm1.176,1.652l-6.546,6.546c-0.391,0.391 -0.391,1.024 -0,1.414c0.39,0.391 1.023,0.391 1.414,0l6.546,-6.546c-0.51,-0.431 -0.983,-0.904 -1.414,-1.414Zm9.161,-17.747c5.519,0 10,4.481 10,10c0,5.519 -4.481,10 -10,10c-5.519,0 -10,-4.481 -10,-10c0,-5.519 4.481,-10 10,-10Zm-0,2c-4.415,0 -8,3.585 -8,8c-0,4.415 3.585,8 8,8c4.415,0 8,-3.585 8,-8c-0,-4.415 -3.585,-8 -8,-8Zm-0,2c3.311,0 6,2.689 6,6c-0,3.311 -2.689,6 -6,6c-3.311,0 -6,-2.689 -6,-6c-0,-3.311 2.689,-6 6,-6Zm-1.414,6l-1.293,1.293c-0.39,0.39 -0.39,1.024 -0,1.414c0.39,0.39 1.024,0.39 1.414,0l1.293,-1.293l1.293,1.293c0.39,0.39 1.024,0.39 1.414,0c0.39,-0.39 0.39,-1.024 0,-1.414l-1.293,-1.293l1.293,-1.293c0.39,-0.39 0.39,-1.024 0,-1.414c-0.39,-0.39 -1.024,-0.39 -1.414,-0l-1.293,1.293l-1.293,-1.293c-0.39,-0.39 -1.024,-0.39 -1.414,-0c-0.39,0.39 -0.39,1.024 -0,1.414l1.293,1.293Z"/></svg>